0
SECTION
2
HEADER
9
$INSUNITS
70
4
0
ENDSEC
0
SECTION
2
TABLES
0
TABLE
2
LTYPE
0
LTYPE
72
65
70
64
2
CONTINUOUS
3
______
73
0
40
0
0
ENDTAB
0
TABLE
2
LAYER
0
ENDTAB
0
ENDSEC
0
SECTION
2
ENTITIES
0
LINE
8
0
10
-9
20
9
11
9
21
9
0
LINE
8
0
10
9
20
9
11
9
21
-9
0
LINE
8
0
10
9
20
-9
11
-9
21
-9
0
LINE
8
0
10
-9
20
-9
11
-9
21
9
0
LINE
8
0
10
-9
20
28
11
9
21
28
0
LINE
8
0
10
9
20
28
11
9
21
10
0
LINE
8
0
10
9
20
10
11
-9
21
10
0
LINE
8
0
10
-9
20
10
11
-9
21
28
0
LINE
8
0
10
-9
20
47
11
9
21
47
0
LINE
8
0
10
9
20
47
11
9
21
29
0
LINE
8
0
10
9
20
29
11
-9
21
29
0
LINE
8
0
10
-9
20
29
11
-9
21
47
0
LINE
8
0
10
12.6248251
20
15.5367471
11
30.4496503
21
13.0316313
0
LINE
8
0
10
30.4496503
20
13.0316313
11
27.9445345
21
-4.7931939
0
LINE
8
0
10
27.9445345
20
-4.7931939
11
10.1197093
21
-2.2880781
0
LINE
8
0
10
10.1197093
20
-2.2880781
11
12.6248251
21
15.5367471
0
LINE
8
0
10
15.269114
20
34.3518404
11
33.0939392
21
31.8467246
0
LINE
8
0
10
33.0939392
20
31.8467246
11
30.5888234
21
14.0218994
0
LINE
8
0
10
30.5888234
20
14.0218994
11
12.7639982
21
16.5270152
0
LINE
8
0
10
12.7639982
20
16.5270152
11
15.269114
21
34.3518404
0
LINE
8
0
10
17.9134029
20
53.1669337
11
35.7382281
21
50.6618179
0
LINE
8
0
10
35.7382281
20
50.6618179
11
33.2331123
21
32.8369927
0
LINE
8
0
10
33.2331123
20
32.8369927
11
15.4082871
21
35.3421085
0
LINE
8
0
10
15.4082871
20
35.3421085
11
17.9134029
21
53.1669337
0
LINE
8
0
10
32.1357839
20
17.8437985
11
49.9606091
21
15.3386827
0
LINE
8
0
10
49.9606091
20
15.3386827
11
47.4554933
21
-2.4861425
0
LINE
8
0
10
47.4554933
20
-2.4861425
11
29.6306681
21
0.0189733
0
LINE
8
0
10
29.6306681
20
0.0189733
11
32.1357839
21
17.8437985
0
LINE
8
0
10
34.7800728
20
36.6588918
11
52.604898
21
34.153776
0
LINE
8
0
10
52.604898
20
34.153776
11
50.0997822
21
16.3289508
0
LINE
8
0
10
50.0997822
20
16.3289508
11
32.274957
21
18.8340666
0
LINE
8
0
10
32.274957
20
18.8340666
11
34.7800728
21
36.6588918
0
LINE
8
0
10
37.4243617
20
55.4739851
11
55.2491869
21
52.9688693
0
LINE
8
0
10
55.2491869
20
52.9688693
11
52.7440711
21
35.1440441
0
LINE
8
0
10
52.7440711
20
35.1440441
11
34.9192459
21
37.6491599
0
LINE
8
0
10
34.9192459
20
37.6491599
11
37.4243617
21
55.4739851
0
LINE
8
0
10
50.5333579
20
12.2287054
11
68.3581831
21
9.7235896
0
LINE
8
0
10
68.3581831
20
9.7235896
11
65.8530673
21
-8.1012356
0
LINE
8
0
10
65.8530673
20
-8.1012356
11
48.0282421
21
-5.5961198
0
LINE
8
0
10
48.0282421
20
-5.5961198
11
50.5333579
21
12.2287054
0
LINE
8
0
10
53.1776468
20
31.0437987
11
71.002472
21
28.5386829
0
LINE
8
0
10
71.002472
20
28.5386829
11
68.4973562
21
10.7138577
0
LINE
8
0
10
68.4973562
20
10.7138577
11
50.672531
21
13.2189735
0
LINE
8
0
10
50.672531
20
13.2189735
11
53.1776468
21
31.0437987
0
LINE
8
0
10
55.8219357
20
49.858892
11
73.6467609
21
47.3537762
0
LINE
8
0
10
73.6467609
20
47.3537762
11
71.1416451
21
29.528951
0
LINE
8
0
10
71.1416451
20
29.528951
11
53.3168199
21
32.0340668
0
LINE
8
0
10
53.3168199
20
32.0340668
11
55.8219357
21
49.858892
0
LINE
8
0
10
69.070105
20
7.6038803
11
86.8949302
21
5.0987645
0
LINE
8
0
10
86.8949302
20
5.0987645
11
84.3898144
21
-12.7260607
0
LINE
8
0
10
84.3898144
20
-12.7260607
11
66.5649892
21
-10.2209449
0
LINE
8
0
10
66.5649892
20
-10.2209449
11
69.070105
21
7.6038803
0
LINE
8
0
10
71.7143939
20
26.4189736
11
89.5392191
21
23.9138578
0
LINE
8
0
10
89.5392191
20
23.9138578
11
87.0341033
21
6.0890326
0
LINE
8
0
10
87.0341033
20
6.0890326
11
69.2092781
21
8.5941484
0
LINE
8
0
10
69.2092781
20
8.5941484
11
71.7143939
21
26.4189736
0
LINE
8
0
10
74.3586828
20
45.2340669
11
92.183508
21
42.7289511
0
LINE
8
0
10
92.183508
20
42.7289511
11
89.6783922
21
24.9041259
0
LINE
8
0
10
89.6783922
20
24.9041259
11
71.853567
21
27.4092417
0
LINE
8
0
10
71.853567
20
27.4092417
11
74.3586828
21
45.2340669
0
LINE
8
0
10
68.2112907
20
-15.6306792
11
84.1043474
21
-24.0811673
0
LINE
8
0
10
84.1043474
20
-24.0811673
11
75.6538593
21
-39.974224
0
LINE
8
0
10
75.6538593
20
-39.974224
11
59.7608026
21
-31.5237359
0
LINE
8
0
10
59.7608026
20
-31.5237359
11
68.2112907
21
-15.6306792
0
LINE
8
0
10
84.987295
20
-24.5506389
11
100.8803517
21
-33.001127
0
LINE
8
0
10
100.8803517
20
-33.001127
11
92.4298636
21
-48.8941837
0
LINE
8
0
10
92.4298636
20
-48.8941837
11
76.5368069
21
-40.4436956
0
LINE
8
0
10
76.5368069
20
-40.4436956
11
84.987295
21
-24.5506389
0
ENDSEC
0
EOF