%TF.GenerationSoftware,KiCad,Pcbnew,(6.0.4)*%
%TF.CreationDate,2022-10-12T19:52:57+02:00*%
%TF.ProjectId,kicad,6b696361-642e-46b6-9963-61645f706362,v 0.2*%
%TF.SameCoordinates,Original*%
%TF.FileFunction,Legend,Top*%
%TF.FilePolarity,Positive*%
%FSLAX46Y46*%
G04 Gerber Fmt 4.6, Leading zero omitted, Abs format (unit mm)*
G04 Created by KiCad (PCBNEW (6.0.4)) date 2022-10-12 19:52:57*
%MOMM*%
%LPD*%
G01*
G04 APERTURE LIST*
%ADD10C,0.300000*%
%ADD11C,0.150000*%
%ADD12C,0.152400*%
%ADD13C,0.100000*%
G04 APERTURE END LIST*
D10*
X137180184Y-132018736D02*
X137116633Y-133231357D01*
X137037826Y-133370281D01*
X136962757Y-133437873D01*
X136816357Y-133501727D01*
X136602365Y-133490512D01*
X136463442Y-133411705D01*
X137131586Y-132946035D02*
X136985186Y-133009889D01*
X136699864Y-132994936D01*
X136560941Y-132916128D01*
X136493348Y-132841059D01*
X136429494Y-132694660D01*
X136451924Y-132266676D01*
X136530731Y-132127753D01*
X136605800Y-132060160D01*
X136752200Y-131996306D01*
X137037522Y-132011259D01*
X137176446Y-132090067D01*
X138535467Y-132089763D02*
X138483131Y-133088393D01*
X137893491Y-132056119D02*
X137852370Y-132840756D01*
X137916224Y-132987156D01*
X138055147Y-133065963D01*
X138269139Y-133077178D01*
X138415538Y-133013324D01*
X138490607Y-132945731D01*
X139196438Y-133125776D02*
X139248774Y-132127146D01*
X139233820Y-132412469D02*
X139312628Y-132273546D01*
X139387697Y-132205953D01*
X139534096Y-132142099D01*
X139676758Y-132149576D01*
X139962080Y-132164529D02*
X140532726Y-132194435D01*
X140202240Y-131676429D02*
X140134951Y-132960381D01*
X140198805Y-133106781D01*
X140337728Y-133185588D01*
X140480390Y-133193065D01*
X141009611Y-132648587D02*
X142150902Y-132708400D01*
X142886638Y-132317798D02*
X142808134Y-133815743D01*
X142882900Y-132389129D02*
X143029300Y-132325275D01*
X143314622Y-132340228D01*
X143453545Y-132419035D01*
X143521138Y-132494104D01*
X143584992Y-132640504D01*
X143562562Y-133068488D01*
X143483755Y-133207411D01*
X143408686Y-133275004D01*
X143262286Y-133338858D01*
X142976964Y-133323905D01*
X142838041Y-133245097D01*
X144403577Y-133398670D02*
X144264654Y-133319863D01*
X144197062Y-133244794D01*
X144133208Y-133098394D01*
X144155637Y-132670410D01*
X144234445Y-132531487D01*
X144309514Y-132463895D01*
X144455913Y-132400041D01*
X144669905Y-132411256D01*
X144808828Y-132490063D01*
X144876421Y-132565132D01*
X144940275Y-132711531D01*
X144917845Y-133139515D01*
X144839038Y-133278439D01*
X144763969Y-133346031D01*
X144617569Y-133409885D01*
X144403577Y-133398670D01*
X145544868Y-133458483D02*
X145597204Y-132459853D01*
X145582251Y-132745176D02*
X145661058Y-132606253D01*
X145736127Y-132538660D01*
X145882527Y-132474806D01*
X146025188Y-132482283D01*
X146310511Y-132497236D02*
X146881156Y-132527142D01*
X146550671Y-132009136D02*
X146483382Y-133293088D01*
X146547236Y-133439488D01*
X146686159Y-133518295D01*
X146828820Y-133525772D01*
X147970111Y-133585584D02*
X148011232Y-132800947D01*
X147947378Y-132654547D01*
X147808455Y-132575740D01*
X147523133Y-132560787D01*
X147376733Y-132624641D01*
X147973850Y-133514254D02*
X147827450Y-133578108D01*
X147470797Y-133559416D01*
X147331874Y-133480609D01*
X147268019Y-133334209D01*
X147275496Y-133191548D01*
X147354303Y-133052625D01*
X147500703Y-132988771D01*
X147857356Y-133007462D01*
X148003756Y-132943608D01*
X148683418Y-133622967D02*
X148761922Y-132125023D01*
X148732016Y-132695668D02*
X148878416Y-132631814D01*
X149163738Y-132646767D01*
X149302661Y-132725575D01*
X149370254Y-132800644D01*
X149434108Y-132947043D01*
X149411678Y-133375027D01*
X149332871Y-133513950D01*
X149257802Y-133581543D01*
X149111402Y-133645397D01*
X148826080Y-133630444D01*
X148687156Y-133551636D01*
X150252693Y-133705209D02*
X150113770Y-133626402D01*
X150049916Y-133480003D01*
X150117205Y-132196050D01*
X151397722Y-133693691D02*
X151251323Y-133757545D01*
X150966000Y-133742592D01*
X150827077Y-133663785D01*
X150763223Y-133517385D01*
X150793129Y-132946740D01*
X150871936Y-132807817D01*
X151018336Y-132743963D01*
X151303659Y-132758916D01*
X151442582Y-132837723D01*
X151506436Y-132984123D01*
X151498959Y-133126784D01*
X150778176Y-133232063D01*
X153158256Y-132856111D02*
X153462574Y-133873432D01*
X153871563Y-132893494D01*
X154753699Y-132439039D02*
X154896361Y-132446515D01*
X155035284Y-132525322D01*
X155102876Y-132600391D01*
X155166730Y-132746791D01*
X155223108Y-133035852D01*
X155204416Y-133392505D01*
X155118133Y-133674090D01*
X155039325Y-133813013D01*
X154964256Y-133880605D01*
X154817857Y-133944459D01*
X154675195Y-133936983D01*
X154536272Y-133858176D01*
X154468680Y-133783107D01*
X154404826Y-133636707D01*
X154348448Y-133347646D01*
X154367140Y-132990993D01*
X154453423Y-132709408D01*
X154532231Y-132570485D01*
X154607300Y-132502893D01*
X154753699Y-132439039D01*
X155823963Y-133854134D02*
X155891555Y-133929203D01*
X155816486Y-133996795D01*
X155748894Y-133921726D01*
X155823963Y-133854134D01*
X155816486Y-133996795D01*
X156529490Y-132675157D02*
X156604559Y-132607565D01*
X156750958Y-132543711D01*
X157107612Y-132562402D01*
X157246535Y-132641209D01*
X157314127Y-132716278D01*
X157377981Y-132862678D01*
X157370505Y-133005339D01*
X157287959Y-133215593D01*
X156387132Y-134026702D01*
X157314431Y-134075299D01*
D11*
X106469070Y-124553689D02*
X106495383Y-124615679D01*
X106486020Y-124765973D01*
X106450343Y-124854276D01*
X106352676Y-124968892D01*
X106228696Y-125021519D01*
X106122554Y-125029994D01*
X105928109Y-125002792D01*
X105795655Y-124949276D01*
X105636887Y-124833771D01*
X105566422Y-124753943D01*
X105513795Y-124629963D01*
X105523159Y-124479669D01*
X105558836Y-124391366D01*
X105656503Y-124276750D01*
X105718493Y-124250436D01*
X106896303Y-123750486D02*
X106717919Y-124192002D01*
X105790735Y-123817395D01*
X107021172Y-123441424D02*
X106093988Y-123066818D01*
X107235233Y-122911605D02*
X106544868Y-123094909D01*
X106308049Y-122536998D02*
X106623807Y-123280879D01*
X107574163Y-122072724D02*
X107395778Y-122514240D01*
X106468595Y-122139634D01*
X100724939Y-122813367D02*
X101775687Y-122897264D01*
X100985426Y-122199698D01*
X102171782Y-121720379D02*
X102197010Y-121782818D01*
X102185025Y-121932925D01*
X102147812Y-122020592D01*
X102048160Y-122133487D01*
X101923280Y-122183941D01*
X101817007Y-122190563D01*
X101623066Y-122159971D01*
X101491566Y-122104152D01*
X101334838Y-121985894D01*
X101265777Y-121904848D01*
X101215322Y-121779968D01*
X101227307Y-121629861D01*
X101264520Y-121542194D01*
X101364172Y-121429300D01*
X101426612Y-121404072D01*
X102562514Y-120799874D02*
X102587741Y-120862313D01*
X102575756Y-121012420D01*
X102538543Y-121100088D01*
X102438891Y-121212982D01*
X102314011Y-121263437D01*
X102207738Y-121270058D01*
X102013797Y-121239466D01*
X101882297Y-121183648D01*
X101725569Y-121065389D01*
X101656508Y-120984343D01*
X101606053Y-120859463D01*
X101618038Y-120709356D01*
X101655251Y-120621689D01*
X101754903Y-120508795D01*
X101817343Y-120483568D01*
X104015556Y-124140373D02*
X103088372Y-123765766D01*
X103177564Y-123545008D01*
X103275231Y-123430392D01*
X103399211Y-123377765D01*
X103505352Y-123369290D01*
X103699797Y-123396492D01*
X103832252Y-123450008D01*
X103991020Y-123565513D01*
X104061485Y-123645341D01*
X104114111Y-123769321D01*
X104104748Y-123919615D01*
X104015556Y-124140373D01*
X104390162Y-123213189D02*
X103462978Y-122838582D01*
X103712716Y-122220460D02*
X103784070Y-122043853D01*
X103863898Y-121973388D01*
X103987878Y-121920762D01*
X104182323Y-121947964D01*
X104491384Y-122072833D01*
X104650152Y-122188338D01*
X104702779Y-122312318D01*
X104711253Y-122418460D01*
X104639900Y-122595066D01*
X104560071Y-122665531D01*
X104436091Y-122718158D01*
X104241647Y-122690956D01*
X103932585Y-122566087D01*
X103773817Y-122450581D01*
X103721191Y-122326601D01*
X103712716Y-122220460D01*
X105139375Y-121358821D02*
X104960991Y-121800337D01*
X104033807Y-121425731D01*
X108097353Y-125337852D02*
X108017525Y-125408317D01*
X107964009Y-125540772D01*
X107954646Y-125691065D01*
X108007272Y-125815045D01*
X108077737Y-125894873D01*
X108236505Y-126010379D01*
X108368960Y-126063894D01*
X108563405Y-126091096D01*
X108669546Y-126082621D01*
X108793526Y-126029995D01*
X108891193Y-125915378D01*
X108926870Y-125827075D01*
X108936234Y-125676782D01*
X108909920Y-125614792D01*
X108600859Y-125489923D01*
X108529506Y-125666529D01*
X109158769Y-125253104D02*
X108231586Y-124878497D01*
X109372830Y-124723285D01*
X108445646Y-124348678D01*
X109551214Y-124281769D02*
X108624031Y-123907162D01*
X108713223Y-123686404D01*
X108810889Y-123571788D01*
X108934869Y-123519161D01*
X109041011Y-123510686D01*
X109235456Y-123537888D01*
X109367911Y-123591404D01*
X109526679Y-123706909D01*
X109597144Y-123786737D01*
X109649770Y-123910717D01*
X109640406Y-124061011D01*
X109551214Y-124281769D01*
D12*
%TO.C,YJT1*%
X147591900Y-121330458D02*
X147591900Y-122249696D01*
X146948434Y-120319296D02*
X147591900Y-121330458D01*
X148235367Y-120319296D01*
X149430377Y-120319296D02*
X149430377Y-121698153D01*
X149338453Y-121973924D01*
X149154605Y-122157772D01*
X148878834Y-122249696D01*
X148694986Y-122249696D01*
X150073843Y-120319296D02*
X151176929Y-120319296D01*
X150625386Y-122249696D02*
X150625386Y-120319296D01*
X152831558Y-122249696D02*
X151728472Y-122249696D01*
X152280015Y-122249696D02*
X152280015Y-120319296D01*
X152096167Y-120595067D01*
X151912320Y-120778915D01*
X151728472Y-120870839D01*
X144650339Y-126969258D02*
X144650339Y-127888496D01*
X144006872Y-125958096D02*
X144650339Y-126969258D01*
X145293805Y-125958096D01*
X146488815Y-125958096D02*
X146488815Y-127336953D01*
X146396891Y-127612724D01*
X146213043Y-127796572D01*
X145937272Y-127888496D01*
X145753424Y-127888496D01*
X148419215Y-127888496D02*
X147316129Y-127888496D01*
X147867672Y-127888496D02*
X147867672Y-125958096D01*
X147683824Y-126233867D01*
X147499977Y-126417715D01*
X147316129Y-126509639D01*
X150073843Y-126601562D02*
X150073843Y-127888496D01*
X149614224Y-125866172D02*
X149154605Y-127245029D01*
X150349615Y-127245029D01*
X151452700Y-125958096D02*
X151636548Y-125958096D01*
X151820396Y-126050020D01*
X151912320Y-126141943D01*
X152004243Y-126325791D01*
X152096167Y-126693486D01*
X152096167Y-127153105D01*
X152004243Y-127520800D01*
X151912320Y-127704648D01*
X151820396Y-127796572D01*
X151636548Y-127888496D01*
X151452700Y-127888496D01*
X151268853Y-127796572D01*
X151176929Y-127704648D01*
X151085005Y-127520800D01*
X150993081Y-127153105D01*
X150993081Y-126693486D01*
X151085005Y-126325791D01*
X151176929Y-126141943D01*
X151268853Y-126050020D01*
X151452700Y-125958096D01*
X153934643Y-127888496D02*
X152831558Y-127888496D01*
X153383100Y-127888496D02*
X153383100Y-125958096D01*
X153199253Y-126233867D01*
X153015405Y-126417715D01*
X152831558Y-126509639D01*
X155681196Y-125958096D02*
X154761958Y-125958096D01*
X154670034Y-126877334D01*
X154761958Y-126785410D01*
X154945805Y-126693486D01*
X155405424Y-126693486D01*
X155589272Y-126785410D01*
X155681196Y-126877334D01*
X155773120Y-127061181D01*
X155773120Y-127520800D01*
X155681196Y-127704648D01*
X155589272Y-127796572D01*
X155405424Y-127888496D01*
X154945805Y-127888496D01*
X154761958Y-127796572D01*
X154670034Y-127704648D01*
D11*
%TO.C,BT1*%
X123214285Y-125238571D02*
X123357142Y-125286190D01*
X123404761Y-125333809D01*
X123452380Y-125429047D01*
X123452380Y-125571904D01*
X123404761Y-125667142D01*
X123357142Y-125714761D01*
X123261904Y-125762380D01*
X122880952Y-125762380D01*
X122880952Y-124762380D01*
X123214285Y-124762380D01*
X123309523Y-124810000D01*
X123357142Y-124857619D01*
X123404761Y-124952857D01*
X123404761Y-125048095D01*
X123357142Y-125143333D01*
X123309523Y-125190952D01*
X123214285Y-125238571D01*
X122880952Y-125238571D01*
X123738095Y-124762380D02*
X124309523Y-124762380D01*
X124023809Y-125762380D02*
X124023809Y-124762380D01*
X125166666Y-125762380D02*
X124595238Y-125762380D01*
X124880952Y-125762380D02*
X124880952Y-124762380D01*
X124785714Y-124905238D01*
X124690476Y-125000476D01*
X124595238Y-125048095D01*
%TO.C,SW17*%
X198478591Y-125892122D02*
X198360636Y-125798515D01*
X198136900Y-125717082D01*
X198031119Y-125729256D01*
X197970085Y-125757716D01*
X197892764Y-125830924D01*
X197860191Y-125920419D01*
X197872365Y-126026200D01*
X197900825Y-126087234D01*
X197974033Y-126164554D01*
X198136736Y-126274448D01*
X198209943Y-126351769D01*
X198238404Y-126412803D01*
X198250578Y-126518584D01*
X198218005Y-126608079D01*
X198140684Y-126681286D01*
X198079650Y-126709747D01*
X197973869Y-126721921D01*
X197750133Y-126640488D01*
X197632177Y-126546880D01*
X197302660Y-126477621D02*
X197420944Y-125456495D01*
X196997654Y-126062557D01*
X197062966Y-125326201D01*
X196497209Y-126184461D01*
X195989031Y-124935321D02*
X196525998Y-125130761D01*
X196257515Y-125033041D02*
X195915495Y-125972734D01*
X196053849Y-125871066D01*
X196175917Y-125814144D01*
X196281698Y-125801970D01*
X195333780Y-125761007D02*
X194707318Y-125532994D01*
X195452064Y-124739881D01*
%TO.C,SW13*%
X181505405Y-119721295D02*
X181387450Y-119627688D01*
X181163714Y-119546255D01*
X181057933Y-119558429D01*
X180996899Y-119586889D01*
X180919578Y-119660097D01*
X180887005Y-119749592D01*
X180899179Y-119855373D01*
X180927639Y-119916407D01*
X181000847Y-119993727D01*
X181163550Y-120103621D01*
X181236757Y-120180942D01*
X181265218Y-120241976D01*
X181277392Y-120347757D01*
X181244819Y-120437252D01*
X181167498Y-120510459D01*
X181106464Y-120538920D01*
X181000683Y-120551094D01*
X180776947Y-120469661D01*
X180658991Y-120376053D01*
X180329474Y-120306794D02*
X180447758Y-119285668D01*
X180024468Y-119891730D01*
X180089780Y-119155374D01*
X179524023Y-120013634D01*
X179015845Y-118764494D02*
X179552812Y-118959934D01*
X179284329Y-118862214D02*
X178942309Y-119801907D01*
X179080663Y-119700239D01*
X179202731Y-119643317D01*
X179308512Y-119631143D01*
X178360594Y-119590180D02*
X177778880Y-119378453D01*
X178222404Y-119134482D01*
X178088162Y-119085622D01*
X178014954Y-119008301D01*
X177986494Y-118947267D01*
X177974320Y-118841486D01*
X178055753Y-118617750D01*
X178133074Y-118544542D01*
X178194108Y-118516081D01*
X178299889Y-118503908D01*
X178568372Y-118601628D01*
X178641580Y-118678948D01*
X178670041Y-118739982D01*
D13*
%TO.C,YJT1*%
X142483840Y-110251220D02*
X142483840Y-130251180D01*
X157480000Y-110251220D02*
X142483840Y-110251220D01*
X142483840Y-130251180D02*
X157480000Y-130251180D01*
X157480000Y-130251180D02*
X157480000Y-110251220D01*
%TO.C,BT1*%
X113220000Y-124500000D02*
X113220000Y-125130000D01*
X134780000Y-124500000D02*
X134780000Y-125130000D01*
X115300000Y-113960000D02*
X113220000Y-116040000D01*
X134780000Y-116040000D02*
X134780000Y-118500000D01*
X113220000Y-116040000D02*
X113220000Y-118500000D01*
X132700000Y-113960000D02*
X134780000Y-116040000D01*
X132700000Y-113960000D02*
X115300000Y-113960000D01*
X134780000Y-125130000D02*
X133340000Y-129080000D01*
X113220000Y-125130000D02*
X114660000Y-129080000D01*
X130000000Y-130049999D02*
G75*
G03*
X133325243Y-129088169I1310000J1699999D01*
G01*
X130000000Y-130050000D02*
G75*
G03*
X117995400Y-130053536I-6000000J-7810002D01*
G01*
X114660000Y-129080000D02*
G75*
G03*
X117996646Y-130066530I2030000J730001D01*
G01*
D11*
%TO.C,SW17*%
X185784086Y-137936471D02*
X184844394Y-137594451D01*
X198342110Y-141443041D02*
X198000090Y-142382733D01*
X201848680Y-128885017D02*
X202788372Y-129227037D01*
X198000090Y-142382733D02*
X197060398Y-142040713D01*
X189290656Y-125378447D02*
X189632676Y-124438755D01*
X189632676Y-124438755D02*
X190572368Y-124780775D01*
X202788372Y-129227037D02*
X202446352Y-130166729D01*
X184844394Y-137594451D02*
X185186414Y-136654759D01*
%TO.C,SW13*%
X181026904Y-136211906D02*
X180087212Y-135869886D01*
X184875494Y-122714190D02*
X185815186Y-123056210D01*
X167871208Y-131423624D02*
X168213228Y-130483932D01*
X168810900Y-131765644D02*
X167871208Y-131423624D01*
X185815186Y-123056210D02*
X185473166Y-123995902D01*
X172659490Y-118267928D02*
X173599182Y-118609948D01*
X172317470Y-119207620D02*
X172659490Y-118267928D01*
X181368924Y-135272214D02*
X181026904Y-136211906D01*
%TD*%
M02*
