M48
; DRILL file {KiCad (6.0.4)} date Wed Jul 13 14:09:50 2022
; FORMAT={-:-/ absolute / inch / decimal}
; #@! TF.CreationDate,2022-07-13T14:09:50+02:00
; #@! TF.GenerationSoftware,Kicad,Pcbnew,(6.0.4)
; #@! TF.FileFunction,NonPlated,1,2,NPTH
FMAT,2
INCH
; #@! TA.AperFunction,NonPlated,NPTH,ComponentDrill
T1C0.0390
; #@! TA.AperFunction,NonPlated,NPTH,ComponentDrill
T2C0.0670
; #@! TA.AperFunction,NonPlated,NPTH,ComponentDrill
T3C0.1350
%
G90
G05
T1
X3.6156Y-2.7481
X3.7087Y-3.4082
X3.8019Y-4.0737
X4.0226Y-2.6909
X4.1158Y-3.351
X4.2089Y-4.0164
X4.578Y-2.374
X4.578Y-3.0433
X4.578Y-3.7126
X4.989Y-2.374
X4.989Y-3.0433
X4.989Y-3.7126
X5.2866Y-2.1772
X5.2866Y-3.5157
X5.2866Y-2.8465
X5.6976Y-2.1772
X5.6976Y-3.5157
X5.6976Y-2.8465
X5.9953Y-2.9646
X5.9953Y-3.6339
X5.9953Y-2.2953
X6.4063Y-2.9646
X6.4063Y-3.6339
X6.4063Y-2.2953
X6.7039Y-2.374
X6.7039Y-3.0433
X6.7039Y-3.7126
X6.8258Y-4.7838
X7.0474Y-5.2591
X7.115Y-2.374
X7.115Y-3.0433
X7.115Y-3.7126
X7.188Y-4.8729
X7.212Y-4.9244
X7.494Y-5.0267
X7.7157Y-5.5021
X7.8562Y-5.1158
X7.8802Y-5.1673
T2
X3.6277Y-2.9134
X3.7208Y-3.5734
X3.814Y-4.2389
X4.0565Y-2.8531
X4.1497Y-3.5132
X4.2428Y-4.1787
X4.5669Y-2.5394
X4.5669Y-3.2087
X4.5669Y-3.878
X5.0Y-2.5394
X5.0Y-3.2087
X5.0Y-3.878
X5.2756Y-2.3425
X5.2756Y-3.6811
X5.2756Y-3.0118
X5.7087Y-2.3425
X5.7087Y-3.6811
X5.7087Y-3.0118
X5.9843Y-3.1299
X5.9843Y-3.7992
X5.9843Y-2.4606
X6.4173Y-3.1299
X6.4173Y-3.7992
X6.4173Y-2.4606
X6.6929Y-2.5394
X6.6929Y-3.2087
X6.6929Y-3.878
X7.0364Y-4.806
X7.126Y-2.5394
X7.126Y-3.2087
X7.126Y-3.878
X7.1658Y-5.0835
X7.7046Y-5.0489
X7.834Y-5.3265
T3
X3.8421Y-2.8832
X3.9353Y-3.5433
X4.0284Y-4.2088
X4.7835Y-2.5394
X4.7835Y-3.2087
X4.7835Y-3.878
X5.4921Y-2.3425
X5.4921Y-3.6811
X5.4921Y-3.0118
X6.2008Y-3.1299
X6.2008Y-3.7992
X6.2008Y-2.4606
X6.9094Y-2.5394
X6.9094Y-3.2087
X6.9094Y-3.878
X6.9623Y-5.0094
X7.6306Y-5.2524
T0
M30
