M48
; DRILL file {KiCad (6.0.4)} date Fri Jul 15 11:27:28 2022
; FORMAT={-:-/ absolute / inch / decimal}
; #@! TF.CreationDate,2022-07-15T11:27:28+02:00
; #@! TF.GenerationSoftware,Kicad,Pcbnew,(6.0.4)
; #@! TF.FileFunction,Plated,1,2,PTH
FMAT,2
INCH
; #@! TA.AperFunction,Plated,PTH,ViaDrill
T1C0.0157
; #@! TA.AperFunction,Plated,PTH,ComponentDrill
T2C0.0394
; #@! TA.AperFunction,Plated,PTH,ComponentDrill
T3C0.0500
; #@! TA.AperFunction,Plated,PTH,ComponentDrill
T4C0.0700
%
G90
G05
T1
X4.6063Y-4.6634
X5.1457Y-4.6594
X5.6653Y-4.8839
X5.685Y-4.8445
X5.7376Y-4.2898
X5.7795Y-4.2913
X5.8235Y-4.2907
X5.8658Y-4.2897
X5.913Y-4.2937
X5.9213Y-4.7362
X5.9213Y-4.6929
X5.9271Y-4.4331
X5.9543Y-4.2918
X5.9976Y-4.2918
X6.0433Y-4.2854
X6.0896Y-4.2844
X6.1429Y-4.2846
X6.248Y-4.5
X6.254Y-4.7795
X6.254Y-4.8228
X6.254Y-4.8661
X6.2579Y-4.5591
T2
X3.9638Y-4.8885
X4.0551Y-4.9291
X4.1465Y-4.9698
X4.2378Y-5.0105
T3
X3.668Y-3.0588
X3.7611Y-3.7189
X3.8543Y-4.3843
X3.8744Y-3.1133
X3.9676Y-3.7733
X4.0579Y-3.004
X4.0607Y-4.4388
X4.151Y-3.6641
X4.2442Y-4.3295
X4.5866Y-2.689
X4.5866Y-3.3583
X4.5866Y-4.0276
X4.7835Y-2.7717
X4.7835Y-3.4409
X4.7835Y-4.1102
X4.9803Y-2.689
X4.9803Y-3.3583
X4.9803Y-4.0276
X5.2953Y-2.4921
X5.2953Y-3.8307
X5.2953Y-3.1614
X5.4921Y-2.5748
X5.4921Y-3.9134
X5.4921Y-3.2441
X5.689Y-2.4921
X5.689Y-3.8307
X5.689Y-3.1614
X6.0039Y-3.2795
X6.0039Y-3.9488
X6.0039Y-2.6102
X6.2008Y-3.3622
X6.2008Y-4.0315
X6.2008Y-2.6929
X6.3976Y-3.2795
X6.3976Y-3.9488
X6.3976Y-2.6102
X6.7126Y-2.689
X6.7126Y-3.3583
X6.7126Y-4.0276
X6.7262Y-5.0827
X6.7544Y-5.1433
X6.8891Y-4.7733
X6.9094Y-2.7717
X6.9094Y-3.4409
X6.9094Y-4.1102
X7.0961Y-5.2174
X7.1063Y-2.689
X7.1063Y-3.3583
X7.1063Y-4.0276
X7.3944Y-5.3256
X7.4227Y-5.3862
X7.5573Y-5.0162
X7.7644Y-5.4603
T4
X6.7589Y-4.9354
X6.8883Y-5.2129
X7.4271Y-5.1783
X7.5565Y-5.4559
T0
M30
