%TF.GenerationSoftware,KiCad,Pcbnew,(6.0.4)*%
%TF.CreationDate,2022-07-15T11:27:34+02:00*%
%TF.ProjectId,kicad,6b696361-642e-46b6-9963-61645f706362,v 0.2*%
%TF.SameCoordinates,Original*%
%TF.FileFunction,Soldermask,Bot*%
%TF.FilePolarity,Negative*%
%FSLAX46Y46*%
G04 Gerber Fmt 4.6, Leading zero omitted, Abs format (unit mm)*
G04 Created by KiCad (PCBNEW (6.0.4)) date 2022-07-15 11:27:34*
%MOMM*%
%LPD*%
G01*
G04 APERTURE LIST*
G04 Aperture macros list*
%AMHorizOval*
0 Thick line with rounded ends*
0 $1 width*
0 $2 $3 position (X,Y) of the first rounded end (center of the circle)*
0 $4 $5 position (X,Y) of the second rounded end (center of the circle)*
0 Add line between two ends*
20,1,$1,$2,$3,$4,$5,0*
0 Add two circle primitives to create the rounded ends*
1,1,$1,$2,$3*
1,1,$1,$4,$5*%
%AMRotRect*
0 Rectangle, with rotation*
0 The origin of the aperture is its center*
0 $1 length*
0 $2 width*
0 $3 Rotation angle, in degrees counterclockwise*
0 Add horizontal line*
21,1,$1,$2,0,0,$3*%
G04 Aperture macros list end*
%ADD10C,0.990600*%
%ADD11C,3.429000*%
%ADD12C,1.701800*%
%ADD13C,2.500000*%
%ADD14C,2.032000*%
%ADD15R,1.198880X0.698500*%
%ADD16R,0.698500X1.198880*%
%ADD17R,1.715000X5.080000*%
%ADD18R,3.960000X3.960000*%
%ADD19RotRect,1.700000X1.700000X246.000000*%
%ADD20HorizOval,1.700000X0.000000X0.000000X0.000000X0.000000X0*%
G04 APERTURE END LIST*
D10*
%TO.C,SW17*%
X195977747Y-139752424D03*
D11*
X193816383Y-133410744D03*
D12*
X198984692Y-135291855D03*
D10*
X199548437Y-129942033D03*
D12*
X195697494Y-128242435D03*
D10*
X200158063Y-131249380D03*
X190347672Y-127678690D03*
D13*
X191935272Y-138579053D03*
X188648074Y-131529633D03*
D14*
X188535450Y-136809531D03*
X197215170Y-138691677D03*
X191955652Y-127412604D03*
X187818243Y-135271475D03*
%TD*%
D10*
%TO.C,SW2*%
X94201825Y-86567358D03*
D12*
X94509077Y-90765452D03*
D11*
X99955551Y-90000000D03*
D12*
X105402025Y-89234548D03*
D10*
X104540223Y-85114391D03*
D14*
X100776672Y-95842582D03*
X95533068Y-94458884D03*
X105435749Y-93067153D03*
%TD*%
D12*
%TO.C,SW11*%
X151999999Y-79500000D03*
X162999999Y-79500000D03*
D10*
X162719999Y-75300000D03*
D11*
X157499999Y-79500000D03*
D10*
X152279999Y-75300000D03*
D14*
X157499999Y-85400000D03*
X162499999Y-83300000D03*
X152499999Y-83300000D03*
%TD*%
D10*
%TO.C,SW8*%
X144720001Y-72300000D03*
D12*
X134000001Y-76500000D03*
X145000001Y-76500000D03*
D10*
X134280001Y-72300000D03*
D11*
X139500001Y-76500000D03*
D14*
X139500001Y-82400000D03*
X134500001Y-80300000D03*
X144500001Y-80300000D03*
%TD*%
D10*
%TO.C,SW5*%
X116280000Y-77300000D03*
X126720000Y-77300000D03*
D12*
X127000000Y-81500000D03*
X116000000Y-81500000D03*
D11*
X121500000Y-81500000D03*
D14*
X121500000Y-87400000D03*
X126500000Y-85300000D03*
X116500000Y-85300000D03*
%TD*%
D10*
%TO.C,SW16*%
X170280000Y-94300000D03*
X180720000Y-94300000D03*
D11*
X175500000Y-98500000D03*
D12*
X170000000Y-98500000D03*
X181000000Y-98500000D03*
D14*
X175500000Y-104400000D03*
X170500000Y-102300000D03*
X180500000Y-102300000D03*
%TD*%
D10*
%TO.C,SW12*%
X162720000Y-92300000D03*
D12*
X163000000Y-96500000D03*
D10*
X152280000Y-92300000D03*
D12*
X152000000Y-96500000D03*
D11*
X157500000Y-96500000D03*
D14*
X157500000Y-102400000D03*
X152500000Y-100300000D03*
X162500000Y-100300000D03*
%TD*%
D10*
%TO.C,SW15*%
X180720000Y-77300001D03*
D12*
X181000000Y-81500001D03*
D11*
X175500000Y-81500001D03*
D12*
X170000000Y-81500001D03*
D10*
X170280000Y-77300001D03*
D14*
X175500000Y-87400001D03*
X170500000Y-85300001D03*
X180500000Y-85300001D03*
%TD*%
D12*
%TO.C,SW10*%
X152000001Y-62500000D03*
D10*
X162720001Y-58300000D03*
D11*
X157500001Y-62500000D03*
D12*
X163000001Y-62500000D03*
D10*
X152280001Y-58300000D03*
D14*
X157500001Y-68400000D03*
X162500001Y-66300000D03*
X152500001Y-66300000D03*
%TD*%
D12*
%TO.C,SW7*%
X134000000Y-59500000D03*
D11*
X139500000Y-59500000D03*
D10*
X144720000Y-55300000D03*
X134280000Y-55300000D03*
D12*
X145000000Y-59500000D03*
D14*
X139500000Y-65400000D03*
X144500000Y-63300000D03*
X134500000Y-63300000D03*
%TD*%
D10*
%TO.C,SW3*%
X106906166Y-102017760D03*
D12*
X96875020Y-107668821D03*
D10*
X96567768Y-103470727D03*
D11*
X102321494Y-106903369D03*
D12*
X107767968Y-106137917D03*
D14*
X103142615Y-112745951D03*
X107801692Y-109970522D03*
X97899011Y-111362253D03*
%TD*%
D11*
%TO.C,SW6*%
X121500001Y-98500001D03*
D12*
X127000001Y-98500001D03*
D10*
X126720001Y-94300001D03*
X116280001Y-94300001D03*
D12*
X116000001Y-98500001D03*
D14*
X121500001Y-104400001D03*
X126500001Y-102300001D03*
X116500001Y-102300001D03*
%TD*%
D10*
%TO.C,SW14*%
X170279999Y-60300000D03*
D12*
X169999999Y-64500000D03*
X180999999Y-64500000D03*
D10*
X180719999Y-60300000D03*
D11*
X175499999Y-64500000D03*
D14*
X175499999Y-70400000D03*
X170499999Y-68300000D03*
X180499999Y-68300000D03*
%TD*%
D10*
%TO.C,SW1*%
X91835882Y-69801612D03*
D11*
X97589608Y-73234254D03*
D12*
X103036082Y-72468802D03*
D10*
X102174280Y-68348645D03*
D12*
X92143134Y-73999706D03*
D14*
X98410729Y-79076836D03*
X103069806Y-76301407D03*
X93167125Y-77693138D03*
%TD*%
D12*
%TO.C,SW4*%
X127000000Y-64500001D03*
X116000000Y-64500001D03*
D11*
X121500000Y-64500001D03*
D10*
X116280000Y-60300001D03*
X126720000Y-60300001D03*
D14*
X121500000Y-70400001D03*
X126500000Y-68300001D03*
X116500000Y-68300001D03*
%TD*%
D10*
%TO.C,SW9*%
X144720000Y-89300000D03*
D11*
X139500000Y-93500000D03*
D10*
X134280000Y-89300000D03*
D12*
X145000000Y-93500000D03*
X134000000Y-93500000D03*
D14*
X139500000Y-99400000D03*
X144500000Y-97300000D03*
X134500000Y-97300000D03*
%TD*%
D10*
%TO.C,SW13*%
X173374486Y-121507863D03*
X183184877Y-125078553D03*
X182575251Y-123771206D03*
D11*
X176843197Y-127239917D03*
D12*
X178724308Y-122071608D03*
X182011506Y-129121028D03*
D10*
X179004561Y-133581597D03*
D13*
X171674888Y-125358806D03*
X174962086Y-132408226D03*
D14*
X174982466Y-121241777D03*
X170845057Y-129100648D03*
X171562264Y-130638704D03*
X180241984Y-132520850D03*
%TD*%
D15*
%TO.C,YJT2*%
X142483840Y-124698740D03*
X142483840Y-123598920D03*
X142483840Y-122499100D03*
X142483840Y-121399280D03*
X142483840Y-120299460D03*
X142483840Y-119199640D03*
X142483840Y-118099820D03*
X142483840Y-117000000D03*
X142483840Y-115900180D03*
X142483840Y-114800360D03*
X142483840Y-113700540D03*
X142483840Y-112600720D03*
D16*
X143934180Y-110251220D03*
X145034000Y-110251220D03*
X146133820Y-110251220D03*
X147233640Y-110251220D03*
X148333460Y-110251220D03*
X149433280Y-110251220D03*
X150530560Y-110251220D03*
X151630380Y-110251220D03*
X152730200Y-110251220D03*
X153830020Y-110251220D03*
X154929840Y-110251220D03*
X156029660Y-110251220D03*
D15*
X157480000Y-112600720D03*
X157480000Y-113700540D03*
X157480000Y-114800360D03*
X157480000Y-115900180D03*
X157480000Y-117000000D03*
X157480000Y-118099820D03*
X157480000Y-119199640D03*
X157480000Y-120299460D03*
X157480000Y-121399280D03*
X157480000Y-122499100D03*
X157480000Y-123598920D03*
X157480000Y-124698740D03*
%TD*%
D17*
%TO.C,BT2*%
X135200000Y-121500000D03*
X112792500Y-121500000D03*
D18*
X124000000Y-121500000D03*
%TD*%
D19*
%TO.C,PROG1*%
X100679595Y-124166889D03*
D20*
X103000000Y-125200000D03*
X105320406Y-126233111D03*
X107640811Y-127266222D03*
%TD*%
M02*
