%TF.GenerationSoftware,KiCad,Pcbnew,(6.0.4-0)*%
%TF.CreationDate,2022-10-12T20:40:01+02:00*%
%TF.ProjectId,kicad,6b696361-642e-46b6-9963-61645f706362,v 0.2*%
%TF.SameCoordinates,Original*%
%TF.FileFunction,Profile,NP*%
%FSLAX46Y46*%
G04 Gerber Fmt 4.6, Leading zero omitted, Abs format (unit mm)*
G04 Created by KiCad (PCBNEW (6.0.4-0)) date 2022-10-12 20:40:01*
%MOMM*%
%LPD*%
G01*
G04 APERTURE LIST*
%TA.AperFunction,Profile*%
%ADD10C,0.100000*%
%TD*%
G04 APERTURE END LIST*
D10*
X197000000Y-149520000D02*
X161870000Y-136930000D01*
X166750000Y-54750000D02*
G75*
G03*
X167750000Y-55750000I1000000J0D01*
G01*
X95150037Y-122769995D02*
G75*
G03*
X95890000Y-123770000I1285163J177195D01*
G01*
X167750000Y-55750000D02*
X183850000Y-55800000D01*
X131207107Y-50757107D02*
G75*
G03*
X130207107Y-51757107I-7J-999993D01*
G01*
X87970000Y-65770000D02*
X111270000Y-62480000D01*
X161869997Y-136930006D02*
G75*
G03*
X159940000Y-136440000I-2206697J-4645694D01*
G01*
X95150000Y-122770000D02*
X87310000Y-66680000D01*
X117490000Y-133410000D02*
X95890000Y-123770000D01*
X149740000Y-53750000D02*
X165750000Y-53700000D01*
X131207107Y-50757107D02*
X147750000Y-50740000D01*
X206939992Y-124716225D02*
G75*
G03*
X206487564Y-123743336I-604292J310625D01*
G01*
X130210000Y-54760000D02*
X130207107Y-51757107D01*
X113297107Y-55797107D02*
X129210000Y-55760000D01*
X111270000Y-62480000D02*
G75*
G03*
X112270000Y-61480000I-208200J1208200D01*
G01*
X148750000Y-51740000D02*
G75*
G03*
X147750000Y-50740000I-1000000J0D01*
G01*
X129210000Y-55760000D02*
G75*
G03*
X130210000Y-54760000I0J1000000D01*
G01*
X206940000Y-124716229D02*
X198040000Y-149120000D01*
X196999981Y-149520060D02*
G75*
G03*
X198040000Y-149120000I271119J847060D01*
G01*
X185753439Y-116260000D02*
X206487564Y-123743336D01*
X113297107Y-55797107D02*
G75*
G03*
X112297107Y-56797107I-7J-999993D01*
G01*
X112270000Y-61480000D02*
X112297107Y-56797107D01*
X159940000Y-136440000D02*
X119344297Y-134036250D01*
X166750010Y-54750000D02*
G75*
G03*
X165750000Y-53700000I-1000010J48800D01*
G01*
X185013451Y-115096803D02*
G75*
G03*
X185753439Y-116260000I1143849J-89297D01*
G01*
X184850000Y-56800000D02*
X185013439Y-115096802D01*
X148740000Y-52750000D02*
G75*
G03*
X149740000Y-53750000I1000000J0D01*
G01*
X184850000Y-56800000D02*
G75*
G03*
X183850000Y-55800000I-1000000J0D01*
G01*
X148750000Y-51740000D02*
X148740000Y-52750000D01*
X117490008Y-133409986D02*
G75*
G03*
X119344297Y-134036250I2714392J4978686D01*
G01*
X87969991Y-65769938D02*
G75*
G03*
X87310000Y-66680000I111709J-775362D01*
G01*
M02*
